<?xml version="1.0" encoding="utf-8"?>
<!-- Generator: Adobe Illustrator 24.0.1, SVG Export Plug-In . SVG Version: 6.00 Build 0)  -->
<svg version="1.1" id="Layer_1" xmlns="http://www.w3.org/2000/svg" xmlns:xlink="http://www.w3.org/1999/xlink" x="0px" y="0px"
	 viewBox="140 250 1000 269" style="enable-background:new 0 0 1280 769;" xml:space="preserve">
<style type="text/css">
	.st0{fill:#FFFFFF;}
	.st1{fill:#FEDC00;}
	.st2{fill:#663399;}
</style>
<g>
	<g>
		<path class="st0" d="M521.27,336.33l-34.38,57.34v35.39h-17.6v-35.39l-33.42-57.34h20.38l14,24.46c0.77,1.36,2.08,3.87,3.94,7.54
			l1.97,3.74l1.9,3.74h0.48l1.97-3.74l1.97-3.74c1.67-3.35,3.01-5.86,4.01-7.54l14.13-24.46H521.27z"/>
		<path class="st0" d="M586.22,364.12v64.95h-15.56l0.88-11.14l-0.27-0.07c-3.04,7.97-10.01,11.96-20.92,11.96
			c-14.72,0-22.08-7.36-22.08-22.08v-43.61h15.56V404c0,5.53,0.77,9.16,2.31,10.9c1.54,1.74,4.73,2.62,9.58,2.62
			c9.96,0,14.95-5.98,14.95-17.93v-35.46H586.22z"/>
		<path class="st0" d="M599.87,364.12h50.61v13.38l-34.78,39.74h34.78v11.82h-53.33v-13.66l34.44-39.47h-31.73V364.12z"/>
		<path class="st0" d="M718.62,364.12v64.95h-15.56l0.88-11.14l-0.27-0.07c-3.04,7.97-10.01,11.96-20.92,11.96
			c-14.72,0-22.08-7.36-22.08-22.08v-43.61h15.56V404c0,5.53,0.77,9.16,2.31,10.9c1.54,1.74,4.73,2.62,9.58,2.62
			c9.96,0,14.95-5.98,14.95-17.93v-35.46H718.62z"/>
		<path class="st0" d="M734.86,429.07v-92.73h45.58c12.95,0,22.02,2.83,27.21,8.49c5.19,5.66,7.78,15.58,7.78,29.76
			c0,23.14-2.08,38.01-6.25,44.6s-13.56,9.88-28.19,9.88H734.86z M752.46,414.26h25.07c8.42,0,13.87-1.94,16.34-5.81
			c2.47-3.87,3.7-12.42,3.7-25.65c0-13.68-1.11-22.37-3.33-26.09c-2.22-3.71-7.43-5.57-15.63-5.57h-26.16V414.26z"/>
		<path class="st0" d="M843.97,382.94h-15.9c0-7.79,1.81-13,5.44-15.63c3.62-2.63,10.8-3.94,21.54-3.94
			c11.68,0,19.59,1.61,23.71,4.82c4.12,3.22,6.18,9.35,6.18,18.41v42.46h-15.56l0.75-8.9l-0.41-0.07c-2.99,6.48-9.9,9.71-20.72,9.71
			c-15.72,0-23.57-6.68-23.57-20.04c0-13.5,8.04-20.24,24.12-20.24c10.73,0,17.26,2.47,19.57,7.4h0.27V386.4
			c0-5.07-0.88-8.43-2.65-10.09c-1.77-1.65-5.39-2.48-10.87-2.48C847.93,373.83,843.97,376.87,843.97,382.94z M854.36,399.99
			c-8.79,0-13.18,3.04-13.18,9.1c0,4.21,0.91,6.98,2.72,8.29c1.81,1.31,5.62,1.97,11.41,1.97c9.47,0,14.2-3.19,14.2-9.58
			C869.51,403.25,864.46,399.99,854.36,399.99z"/>
		<path class="st0" d="M942.34,364.12v11.82h-25v32.61c0,6.02,2.29,9.04,6.86,9.04c5.03,0,7.54-3.65,7.54-10.94v-2.58h13.25v3.26
			c0,2.99-0.09,5.55-0.27,7.68c-0.86,9.92-8.24,14.88-22.15,14.88c-13.86,0-20.79-6.36-20.79-19.09v-34.85h-8.42v-11.82h8.42v-14.54
			h15.56v14.54H942.34z"/>
		<path class="st0" d="M969.71,382.94h-15.9c0-7.79,1.81-13,5.44-15.63c3.62-2.63,10.8-3.94,21.54-3.94
			c11.68,0,19.59,1.61,23.71,4.82c4.12,3.22,6.18,9.35,6.18,18.41v42.46h-15.56l0.75-8.9l-0.41-0.07c-2.99,6.48-9.9,9.71-20.72,9.71
			c-15.72,0-23.57-6.68-23.57-20.04c0-13.5,8.04-20.24,24.12-20.24c10.73,0,17.26,2.47,19.57,7.4h0.27V386.4
			c0-5.07-0.88-8.43-2.65-10.09c-1.77-1.65-5.39-2.48-10.87-2.48C973.68,373.83,969.71,376.87,969.71,382.94z M980.11,399.99
			c-8.79,0-13.18,3.04-13.18,9.1c0,4.21,0.91,6.98,2.72,8.29c1.81,1.31,5.62,1.97,11.41,1.97c9.47,0,14.2-3.19,14.2-9.58
			C995.26,403.25,990.21,399.99,980.11,399.99z"/>
	</g>
</g>
<g>
	<path class="st1" d="M381.55,390.67l-0.51-0.53l-0.43-0.59c-0.16-0.22-0.33-0.42-0.49-0.59l-0.02-0.03l-0.02-0.03
		c-0.54-0.57-1.61-1.43-3.2-1.76c-2.13,5.31-5.34,10.28-9.64,14.58c-17.05,17.05-44.7,17.05-61.76,0
		c-17.05-17.05-17.05-44.7,0-61.76c17.05-17.05,44.7-17.05,61.76,0c4.31,4.31,7.52,9.29,9.65,14.61c1.66-0.36,2.74-1.33,3.28-1.96
		l0.17-0.2l0.05-0.06l0.08-0.09l0.08-0.09c4.06-4.72,9.5-7.94,15.47-9.26c-3.16-6.74-7.51-13.06-13.08-18.63
		c-25.72-25.72-67.41-25.72-93.13,0c-25.72,25.72-25.72,67.41,0,93.13l46.56,46.56l46.56-46.56c5.57-5.57,9.93-11.89,13.09-18.64
		C390.54,397.56,385.47,394.76,381.55,390.67z"/>
	<path class="st2" d="M419.5,370.87c0,9.55-7.75,17.3-17.3,17.3c-4.9,0-9.33-2.05-12.48-5.33c-0.45-0.61-0.95-1.2-1.48-1.75
		c-3.18-3.32-7.65-5.38-12.61-5.38c-6.2,0-11.65,3.23-14.76,8.1c-0.32,0.49-0.61,1-0.87,1.53c-4.88,7.96-13.65,13.26-23.66,13.26
		c-15.31,0-27.72-12.41-27.72-27.72c0-15.32,12.41-27.73,27.72-27.73c9.86,0,18.51,5.14,23.43,12.89c0.39,0.82,0.83,1.62,1.34,2.36
		c3.13,4.63,8.43,7.67,14.44,7.67c5.29,0,10.03-2.35,13.21-6.08c0.12-0.13,0.23-0.27,0.35-0.41c3.16-3.68,7.85-6,13.08-6
		C411.75,353.57,419.5,361.32,419.5,370.87z"/>
</g>
</svg>
