<?xml version="1.0" encoding="utf-8"?>
<!-- Generator: Adobe Illustrator 24.0.1, SVG Export Plug-In . SVG Version: 6.00 Build 0)  -->
<svg version="1.1" id="Layer_1" xmlns="http://www.w3.org/2000/svg" xmlns:xlink="http://www.w3.org/1999/xlink" x="0px" y="0px"
	 viewBox="0 0 1280 769" style="enable-background:new 0 0 1280 769;" xml:space="preserve">
<style type="text/css">
	.st0{fill:#FEDC00;}
	.st1{fill:#663399;}
	.st2{fill:#FFFFFF;}
</style>
<g>
	<g>
		<path class="st2" d="M500.01,327.99l-40.33,67.27v41.53h-20.64v-41.53l-39.21-67.27h23.91l16.42,28.69c0.9,1.59,2.44,4.54,4.62,8.85l2.31,4.38
			l2.23,4.38h0.56l2.31-4.38l2.31-4.38c1.96-3.93,3.53-6.88,4.7-8.85l16.58-28.69H500.01z"/>
	</g>
	<g>
		<path class="st2" d="M576.21,360.59v76.2h-18.25l1.04-13.07l-0.32-0.08c-3.56,9.35-11.74,14.03-24.55,14.03c-17.27,0-25.9-8.63-25.9-25.9
			v-51.17h18.25v46.79c0,6.48,0.9,10.75,2.71,12.79c1.81,2.05,5.55,3.07,11.24,3.07c11.69,0,17.54-7.01,17.54-21.04v-41.61H576.21z"
			/>
	</g>
	<g>
		<path class="st2" d="M592.23,360.59h59.38v15.7l-40.81,46.63h40.81v13.87h-62.57v-16.02l40.41-46.31h-37.22V360.59z"/>
	</g>
	<g>
		<path class="st2" d="M731.55,360.59v76.2H713.3l1.04-13.07l-0.32-0.08c-3.56,9.35-11.74,14.03-24.55,14.03c-17.27,0-25.9-8.63-25.9-25.9
			v-51.17h18.25v46.79c0,6.48,0.9,10.75,2.71,12.79c1.81,2.05,5.55,3.07,11.24,3.07c11.69,0,17.54-7.01,17.54-21.04v-41.61H731.55z"
			/>
	</g>
	<g>
		<path class="st2" d="M750.6,436.79v-108.8h53.48c15.2,0,25.84,3.32,31.92,9.96c6.08,6.64,9.13,18.28,9.13,34.91c0,27.15-2.45,44.59-7.33,52.33
			c-4.89,7.73-15.92,11.6-33.08,11.6H750.6z M771.24,419.41h29.41c9.88,0,16.27-2.27,19.17-6.81c2.9-4.54,4.34-14.57,4.34-30.09
			c0-16.05-1.3-26.25-3.91-30.61c-2.6-4.36-8.72-6.54-18.33-6.54h-30.69V419.41z"/>
	</g>
	<g>
		<path class="st2" d="M878.61,382.67h-18.65c0-9.14,2.13-15.25,6.38-18.33c4.25-3.08,12.67-4.62,25.27-4.62c13.71,0,22.98,1.89,27.82,5.66
			c4.83,3.77,7.25,10.97,7.25,21.6v49.82h-18.25l0.88-10.44l-0.48-0.08c-3.51,7.6-11.61,11.4-24.31,11.4
			c-18.44,0-27.66-7.84-27.66-23.51c0-15.83,9.43-23.75,28.29-23.75c12.59,0,20.25,2.9,22.96,8.69h0.32v-12.35
			c0-5.95-1.04-9.9-3.11-11.84c-2.07-1.94-6.32-2.91-12.75-2.91C883.25,371.99,878.61,375.55,878.61,382.67z M890.8,402.67
			c-10.31,0-15.46,3.56-15.46,10.68c0,4.94,1.06,8.18,3.19,9.72c2.13,1.54,6.59,2.31,13.39,2.31c11.11,0,16.66-3.75,16.66-11.24
			C908.58,406.5,902.65,402.67,890.8,402.67z"/>
	</g>
	<g>
		<path class="st2" d="M994.02,360.59v13.87h-29.33v38.26c0,7.07,2.68,10.6,8.05,10.6c5.9,0,8.85-4.28,8.85-12.83v-3.03h15.54v3.83
			c0,3.51-0.11,6.51-0.32,9.01c-1.01,11.64-9.67,17.46-25.98,17.46c-16.26,0-24.39-7.46-24.39-22.4v-40.89h-9.88v-13.87h9.88v-17.06
			h18.25v17.06H994.02z"/>
	</g>
	<g>
		<path class="st2" d="M1026.14,382.67h-18.65c0-9.14,2.13-15.25,6.38-18.33c4.25-3.08,12.67-4.62,25.27-4.62c13.71,0,22.98,1.89,27.82,5.66
			c4.83,3.77,7.25,10.97,7.25,21.6v49.82h-18.25l0.88-10.44l-0.48-0.08c-3.51,7.6-11.61,11.4-24.31,11.4
			c-18.44,0-27.66-7.84-27.66-23.51c0-15.83,9.43-23.75,28.29-23.75c12.59,0,20.25,2.9,22.96,8.69h0.32v-12.35
			c0-5.95-1.04-9.9-3.11-11.84c-2.07-1.94-6.32-2.91-12.75-2.91C1030.79,371.99,1026.14,375.55,1026.14,382.67z M1038.33,402.67
			c-10.31,0-15.46,3.56-15.46,10.68c0,4.94,1.06,8.18,3.19,9.72c2.13,1.54,6.59,2.31,13.39,2.31c11.11,0,16.66-3.75,16.66-11.24
			C1056.11,406.5,1050.18,402.67,1038.33,402.67z"/>
	</g>
</g>
<g>
	<path class="st0" d="M336.08,391.74l-0.59-0.62l-0.51-0.69c-0.19-0.26-0.39-0.49-0.57-0.69l-0.03-0.03l-0.03-0.03
		c-0.64-0.67-1.89-1.68-3.75-2.06c-2.5,6.23-6.27,12.06-11.32,17.11c-20.01,20.01-52.45,20.01-72.46,0
		c-20.01-20.01-20.01-52.45,0-72.46c20.01-20.01,52.45-20.01,72.46,0c5.05,5.05,8.82,10.9,11.33,17.14c1.95-0.43,3.21-1.56,3.85-2.3
		l0.2-0.23l0.06-0.07l0.09-0.11l0.09-0.11c4.76-5.54,11.14-9.31,18.15-10.87c-3.7-7.91-8.82-15.32-15.35-21.86
		c-30.17-30.17-79.09-30.17-109.26,0c-30.17,30.17-30.17,79.09,0,109.26l54.63,54.63l54.63-54.63c6.54-6.54,11.65-13.95,15.35-21.86
		C346.63,399.83,340.68,396.53,336.08,391.74z"/>
	<path class="st1" d="M380.61,368.5c0,11.21-9.09,20.29-20.29,20.29c-5.75,0-10.95-2.4-14.64-6.25c-0.53-0.72-1.11-1.41-1.74-2.06
		c-3.73-3.89-8.98-6.31-14.79-6.31c-7.28,0-13.67,3.79-17.32,9.5c-0.37,0.58-0.71,1.18-1.02,1.79
		c-5.72,9.34-16.02,15.56-27.76,15.56c-17.96,0-32.52-14.56-32.52-32.52c0-17.97,14.56-32.53,32.52-32.53
		c11.57,0,21.72,6.03,27.49,15.12c0.46,0.97,0.98,1.9,1.58,2.77c3.67,5.44,9.89,9,16.94,9c6.21,0,11.76-2.76,15.5-7.13
		c0.14-0.15,0.28-0.32,0.41-0.48c3.71-4.32,9.21-7.04,15.35-7.04C371.52,348.21,380.61,357.3,380.61,368.5z"/>
</g>
</svg>
